<svg xmlns="http://www.w3.org/2000/svg" version="1.1" xmlns:xlink="http://www.w3.org/1999/xlink" xmlns:svgjs="http://svgjs.dev/svgjs" width="1440" height="560" preserveAspectRatio="none" viewBox="0 0 1440 560"><g mask="url(&quot;#SvgjsMask1076&quot;)" fill="none"><rect width="1440" height="560" x="0" y="0" fill="rgba(179, 175, 143, 1)"></rect><path d="M1345.9255562785625 497.16849212789094L1326.141121598796 384.9653874171174 1213.9380168880225 404.74982209688386 1233.722451567789 516.9529268076574z" fill="rgba(255, 196, 130, 1)" class="triangle-float1"></path><path d="M1167.687,377.772C1202.509,376.656,1239.613,371.56,1258.525,342.3C1278.846,310.859,1276.671,270.156,1258.339,237.516C1239.609,204.168,1205.934,180.347,1167.687,180.563C1129.772,180.777,1098.405,206.081,1078.788,238.528C1058.334,272.358,1044.902,315.141,1066.175,348.462C1086.488,380.279,1129.958,378.981,1167.687,377.772" fill="rgba(255, 196, 130, 1)" class="triangle-float3"></path><path d="M292.00950611894046 66.35790387925869L275.3672692852502 224.69821044847515 450.34981268815693 83.00014071294895z" fill="rgba(255, 196, 130, 1)" class="triangle-float3"></path><path d="M132.343,76.605C154.424,75.858,174.875,66.34,187.159,47.976C201.146,27.066,210.196,0.423,198.029,-21.596C185.578,-44.129,158.084,-51.626,132.343,-51.227C107.403,-50.84,82.891,-41.022,70.095,-19.611C56.985,2.326,56.818,30.46,70.7,51.917C83.587,71.836,108.633,77.408,132.343,76.605" fill="rgba(255, 196, 130, 1)" class="triangle-float3"></path><path d="M941.005,179.422C965.988,180.728,993.576,177.964,1007.372,157.095C1022.3,134.514,1019.013,104.992,1005.842,81.344C992.278,56.991,968.83,36.256,941.005,37.936C915.013,39.505,899.916,65.056,888.446,88.432C878.631,108.434,874.514,131.439,885.658,150.732C896.798,170.018,918.763,178.259,941.005,179.422" fill="rgba(255, 196, 130, 1)" class="triangle-float2"></path><path d="M1115.3071340894792 227.52182458593177L1242.5811940609447 259.2548117723604 1274.3141812473732 131.980751800895 1147.0401212759077 100.24776461446635z" fill="rgba(255, 196, 130, 1)" class="triangle-float1"></path><path d="M847.908,457.127C869.723,455.549,888.704,442.649,898.952,423.326C908.569,405.191,905.89,384.067,896.271,365.933C885.887,346.357,870.041,328.192,847.908,327.096C824.163,325.92,803.104,340.555,790.47,360.694C776.886,382.347,769.164,409.806,782.244,431.767C795.113,453.373,822.826,458.941,847.908,457.127" fill="rgba(255, 196, 130, 1)" class="triangle-float1"></path><path d="M242.0514554154338 132.22837047197942L305.5316632366971 275.1737272819524 387.8143476673665 165.98091699920604z" fill="rgba(255, 196, 130, 1)" class="triangle-float2"></path></g><defs><mask id="SvgjsMask1076"><rect width="1440" height="560" fill="#ffffff"></rect></mask><style>
                @keyframes float1 {
                    0%{transform: translate(0, 0)}
                    50%{transform: translate(-10px, 0)}
                    100%{transform: translate(0, 0)}
                }

                .triangle-float1 {
                    animation: float1 5s infinite;
                }

                @keyframes float2 {
                    0%{transform: translate(0, 0)}
                    50%{transform: translate(-5px, -5px)}
                    100%{transform: translate(0, 0)}
                }

                .triangle-float2 {
                    animation: float2 4s infinite;
                }

                @keyframes float3 {
                    0%{transform: translate(0, 0)}
                    50%{transform: translate(0, -10px)}
                    100%{transform: translate(0, 0)}
                }

                .triangle-float3 {
                    animation: float3 6s infinite;
                }
            </style></defs></svg>