<svg xmlns="http://www.w3.org/2000/svg" version="1.1" xmlns:xlink="http://www.w3.org/1999/xlink" xmlns:svgjs="http://svgjs.dev/svgjs" width="1440" height="560" preserveAspectRatio="none" viewBox="0 0 1440 560"><g mask="url(&quot;#SvgjsMask1002&quot;)" fill="none"><rect width="1440" height="560" x="0" y="0" fill="rgba(179, 175, 143, 1)"></rect><path d="M574.73 569.33C701.53 509.34 637.69 106.43 884.41 101.43 1131.14 96.43 1345.34 235.06 1503.78 235.83" stroke="rgba(255, 255, 255, 0.9)" stroke-width="2"></path><path d="M710.16 611.53C809.35 599.65 760.16 392.22 1033.76 377.11 1307.36 362 1505.31 108.3 1680.96 102.71" stroke="rgba(255, 255, 255, 0.9)" stroke-width="2"></path><path d="M568.91 638.47C724.76 633.68 855.1 397.87 1144.29 397.72 1433.47 397.57 1572.56 520.23 1719.66 520.92" stroke="rgba(255, 255, 255, 0.9)" stroke-width="2"></path><path d="M441.33 665.09C612.26 658.78 752.1 385.26 1065.63 385.13 1379.17 385 1528.67 546.21 1689.94 547.53" stroke="rgba(255, 255, 255, 0.9)" stroke-width="2"></path><path d="M612.1 639.49C706.9 622.04 658.82 395.89 900.79 383.91 1142.76 371.93 1327.05 206.75 1478.17 204.71" stroke="rgba(255, 255, 255, 0.9)" stroke-width="2"></path></g><defs><mask id="SvgjsMask1002"><rect width="1440" height="560" fill="#ffffff"></rect></mask></defs></svg>