<svg id="visual" viewBox="0 0 900 600" width="900" height="600" xmlns="http://www.w3.org/2000/svg" xmlns:xlink="http://www.w3.org/1999/xlink" version="1.1"><rect x="0" y="0" width="900" height="600" fill="#140021"></rect><path d="M507 600L478 600L478 500L479 500L479 400L576 400L576 300L620 300L620 200L592 200L592 100L543 100L543 0L900 0L900 100L900 100L900 200L900 200L900 300L900 300L900 400L900 400L900 500L900 500L900 600L900 600Z" fill="#9900ff"></path><path d="M672 600L639 600L639 500L641 500L641 400L587 400L587 300L690 300L690 200L631 200L631 100L674 100L674 0L900 0L900 100L900 100L900 200L900 200L900 300L900 300L900 400L900 400L900 500L900 500L900 600L900 600Z" fill="#7700c6"></path><path d="M745 600L833 600L833 500L723 500L723 400L750 400L750 300L754 300L754 200L720 200L720 100L700 100L700 0L900 0L900 100L900 100L900 200L900 200L900 300L900 300L900 400L900 400L900 500L900 500L900 600L900 600Z" fill="#560090"></path></svg>